<svg width="184" height="36" viewBox="0 0 184 36" fill="none" xmlns="http://www.w3.org/2000/svg">
<path d="M5.34 27C5.04 27 4.91 26.86 4.95 26.58L7.32 11.61H2.58C2.44 11.61 2.33 11.58 2.25 11.52C2.19 11.44 2.17 11.33 2.19 11.19L2.73 7.77C2.77 7.49 2.92 7.35 3.18 7.35H17.58C17.72 7.35 17.83 7.39 17.91 7.47C17.99 7.53 18.01 7.63 17.97 7.77L17.43 11.19C17.39 11.47 17.24 11.61 16.98 11.61H12.18L9.75 26.58C9.71 26.86 9.57 27 9.33 27H5.34ZM25.1468 27.36C22.3068 27.36 20.2468 26.65 18.9668 25.23C17.6868 23.81 17.2568 21.8 17.6768 19.2L18.4268 14.49C18.8268 11.93 19.7768 10.04 21.2768 8.82C22.7768 7.6 24.8768 6.99 27.5768 6.99C30.3968 6.99 32.4568 7.7 33.7568 9.12C35.0568 10.52 35.4968 12.52 35.0768 15.12L34.2968 19.86C33.8968 22.42 32.9468 24.31 31.4468 25.53C29.9468 26.75 27.8468 27.36 25.1468 27.36ZM25.6568 23.07C26.7968 23.07 27.6768 22.78 28.2968 22.2C28.9368 21.62 29.3568 20.72 29.5568 19.5L30.2168 15.33C30.4368 13.97 30.2768 12.96 29.7368 12.3C29.2168 11.64 28.3268 11.3 27.0668 11.28C25.9468 11.28 25.0668 11.57 24.4268 12.15C23.8068 12.73 23.3968 13.63 23.1968 14.85L22.5368 19.02C22.3168 20.38 22.4668 21.39 22.9868 22.05C23.5068 22.71 24.3968 23.05 25.6568 23.07ZM39.9598 27C39.6998 27 39.5598 26.86 39.5398 26.58L37.5298 7.77C37.4898 7.49 37.6098 7.35 37.8898 7.35H41.8498C42.1098 7.35 42.2498 7.49 42.2698 7.77L42.9298 16.38C42.9898 17.34 43.0198 18.3 43.0198 19.26C43.0398 20.2 43.0398 21.16 43.0198 22.14H43.0798C43.3798 21.42 43.6898 20.71 44.0098 20.01C44.3298 19.29 44.6498 18.58 44.9698 17.88L47.8798 11.85L47.3098 8.28C47.2698 8 47.3998 7.86 47.6998 7.86H51.6298C51.8898 7.86 52.0298 8 52.0498 8.28L53.0398 17.61C53.1198 18.35 53.1798 19.1 53.2198 19.86C53.2598 20.62 53.2898 21.38 53.3098 22.14H53.3698C53.5698 21.48 53.7898 20.72 54.0298 19.86C54.2698 18.98 54.5298 18.11 54.8098 17.25C55.0898 16.39 55.3498 15.64 55.5898 15L58.4398 7.77C58.5198 7.49 58.6998 7.35 58.9798 7.35H63.1798C63.4398 7.35 63.5098 7.49 63.3898 7.77L55.6498 26.58C55.5098 26.86 55.3398 27 55.1398 27H50.5198C50.2598 27 50.1198 26.86 50.0998 26.58L49.4998 21.48C49.4198 20.74 49.3398 20.01 49.2598 19.29C49.1998 18.57 49.1398 17.86 49.0798 17.16H49.0198C48.6998 17.88 48.3898 18.6 48.0898 19.32C47.7898 20.04 47.4698 20.76 47.1298 21.48L44.7898 26.58C44.6698 26.86 44.4998 27 44.2798 27H39.9598ZM62.9313 27C62.6313 27 62.5013 26.86 62.5413 26.58L65.5113 7.77C65.5513 7.49 65.6913 7.35 65.9313 7.35H70.8813C71.0613 7.35 71.1813 7.39 71.2413 7.47C71.3213 7.53 71.3813 7.63 71.4213 7.77L73.7313 14.43C74.0913 15.51 74.4213 16.58 74.7213 17.64C75.0213 18.7 75.2913 19.66 75.5313 20.52H75.6213C75.6613 19.62 75.7213 18.73 75.8013 17.85C75.8813 16.95 75.9913 16.05 76.1313 15.15L77.3313 7.77C77.3713 7.49 77.5113 7.35 77.7513 7.35H81.5913C81.8913 7.35 82.0213 7.49 81.9813 7.77L79.0113 26.58C78.9713 26.86 78.8213 27 78.5613 27H73.5813C73.3613 27 73.2013 26.86 73.1013 26.58L71.0613 20.64C70.6413 19.44 70.2613 18.26 69.9213 17.1C69.5813 15.94 69.3013 14.92 69.0813 14.04H68.9613C68.8813 14.96 68.7913 15.89 68.6913 16.83C68.5913 17.77 68.4613 18.71 68.3013 19.65L67.1913 26.58C67.1513 26.86 67.0113 27 66.7713 27H62.9313ZM119.453 27.36C116.633 27.36 114.583 26.64 113.303 25.2C112.023 23.74 111.583 21.72 111.983 19.14L112.703 14.52C113.103 11.96 114.053 10.07 115.553 8.85C117.053 7.61 119.133 6.99 121.793 6.99C123.593 6.99 125.103 7.29 126.323 7.89C127.543 8.49 128.413 9.34 128.933 10.44C129.473 11.54 129.583 12.82 129.263 14.28C129.203 14.56 129.063 14.7 128.843 14.7H124.823C124.543 14.7 124.413 14.56 124.433 14.28C124.573 13.34 124.383 12.61 123.863 12.09C123.363 11.55 122.523 11.28 121.343 11.28C120.223 11.28 119.343 11.58 118.703 12.18C118.083 12.76 117.673 13.65 117.473 14.85L116.813 19.02C116.593 20.38 116.743 21.4 117.263 22.08C117.803 22.74 118.693 23.07 119.933 23.07C121.033 23.07 121.883 22.82 122.483 22.32C123.083 21.8 123.433 21.05 123.533 20.07C123.553 19.79 123.683 19.65 123.923 19.65H127.943C128.263 19.65 128.403 19.79 128.363 20.07C128.283 21.65 127.883 22.98 127.163 24.06C126.443 25.14 125.433 25.96 124.133 26.52C122.853 27.08 121.293 27.36 119.453 27.36ZM130.841 27C130.541 27 130.411 26.86 130.451 26.58L133.421 7.77C133.461 7.49 133.601 7.35 133.841 7.35H137.831C138.131 7.35 138.261 7.49 138.221 7.77L137.081 15H143.891L145.031 7.77C145.071 7.49 145.211 7.35 145.451 7.35H149.441C149.741 7.35 149.871 7.49 149.831 7.77L146.861 26.58C146.821 26.86 146.671 27 146.411 27H142.451C142.151 27 142.021 26.86 142.061 26.58L143.201 19.26H136.421L135.251 26.58C135.211 26.86 135.071 27 134.831 27H130.841ZM148.694 27C148.574 27 148.494 26.96 148.454 26.88C148.414 26.8 148.424 26.7 148.484 26.58L157.574 7.77C157.714 7.49 157.884 7.35 158.084 7.35H163.334C163.574 7.35 163.724 7.49 163.784 7.77L166.934 26.58C166.994 26.86 166.874 27 166.574 27H162.164C161.924 27 161.784 26.86 161.744 26.58L160.514 15.99C160.434 15.25 160.354 14.5 160.274 13.74C160.214 12.98 160.164 12.23 160.124 11.49H160.034C159.774 12.25 159.494 13.01 159.194 13.77C158.894 14.51 158.584 15.26 158.264 16.02L153.704 26.58C153.584 26.86 153.404 27 153.164 27H148.694ZM154.334 23.49L155.714 19.62H161.774L161.984 23.49H154.334ZM170.985 27C170.685 27 170.555 26.86 170.595 26.58L172.965 11.61H168.225C168.085 11.61 167.975 11.58 167.895 11.52C167.835 11.44 167.815 11.33 167.835 11.19L168.375 7.77C168.415 7.49 168.565 7.35 168.825 7.35H183.225C183.365 7.35 183.475 7.39 183.555 7.47C183.635 7.53 183.655 7.63 183.615 7.77L183.075 11.19C183.035 11.47 182.885 11.61 182.625 11.61H177.825L175.395 26.58C175.355 26.86 175.215 27 174.975 27H170.985Z" fill="black"/>
<path d="M104.231 4H89.1538C87.9643 4 87 4.96431 87 6.15385V29.8462C87 31.0357 87.9643 32 89.1538 32H104.231C105.42 32 106.385 31.0357 106.385 29.8462V6.15385C106.385 4.96431 105.42 4 104.231 4Z" fill="#FFC100" stroke="black" stroke-linecap="round" stroke-linejoin="round"/>
<path d="M92.1692 16.9231C92.8545 19.6914 95.5958 21.3831 98.0629 20.6141C99.5706 19.9989 100.804 18.6148 101.215 16.9231" fill="#FFC100"/>
<path d="M92.1692 16.9231C92.8545 19.6914 95.5958 21.3831 98.0629 20.6141C99.5706 19.9989 100.804 18.6148 101.215 16.9231" stroke="black" stroke-linecap="round" stroke-linejoin="round"/>
<path d="M93.6085 13.7315C93.4193 13.7315 93.2658 13.5781 93.2658 13.3888C93.2658 13.1996 93.4193 13.0462 93.6085 13.0462" fill="#FFC100"/>
<path d="M93.6085 13.7315C93.4193 13.7315 93.2658 13.5781 93.2658 13.3888C93.2658 13.1996 93.4193 13.0462 93.6085 13.0462" stroke="black" stroke-linecap="round" stroke-linejoin="round"/>
<path d="M93.6085 13.7315C93.7978 13.7315 93.9512 13.5781 93.9512 13.3888C93.9512 13.1996 93.7978 13.0462 93.6085 13.0462" fill="#FFC100"/>
<path d="M93.6085 13.7315C93.7978 13.7315 93.9512 13.5781 93.9512 13.3888C93.9512 13.1996 93.7978 13.0462 93.6085 13.0462" stroke="black" stroke-linecap="round" stroke-linejoin="round"/>
<path d="M99.7763 13.7315C99.587 13.7315 99.4336 13.5781 99.4336 13.3888C99.4336 13.1996 99.587 13.0462 99.7763 13.0462" fill="#FFC100"/>
<path d="M99.7763 13.7315C99.587 13.7315 99.4336 13.5781 99.4336 13.3888C99.4336 13.1996 99.587 13.0462 99.7763 13.0462" stroke="black" stroke-linecap="round" stroke-linejoin="round"/>
<path d="M99.7763 13.7315C99.9655 13.7315 100.119 13.5781 100.119 13.3888C100.119 13.1996 99.9655 13.0462 99.7763 13.0462" fill="#FFC100"/>
<path d="M99.7763 13.7315C99.9655 13.7315 100.119 13.5781 100.119 13.3888C100.119 13.1996 99.9655 13.0462 99.7763 13.0462" stroke="black" stroke-linecap="round" stroke-linejoin="round"/>
</svg>
