<svg width="185" height="38" viewBox="0 0 185 38" fill="none" xmlns="http://www.w3.org/2000/svg">
<path d="M24.696 29C24.376 29 24.2373 28.8507 24.28 28.552L26.808 12.584H21.752C21.6027 12.584 21.4853 12.552 21.4 12.488C21.336 12.4027 21.3147 12.2853 21.336 12.136L21.912 8.488C21.9547 8.18933 22.1147 8.04 22.392 8.04H37.752C37.9013 8.04 38.0187 8.08267 38.104 8.168C38.1893 8.232 38.2107 8.33867 38.168 8.488L37.592 12.136C37.5493 12.4347 37.3893 12.584 37.112 12.584H31.992L29.4 28.552C29.3573 28.8507 29.208 29 28.952 29H24.696ZM45.8233 29.384C42.7939 29.384 40.5966 28.6267 39.2313 27.112C37.8659 25.5973 37.4073 23.4533 37.8553 20.68L38.6553 15.656C39.0819 12.9253 40.0953 10.9093 41.6953 9.608C43.2953 8.30667 45.5353 7.656 48.4153 7.656C51.4233 7.656 53.6206 8.41333 55.0073 9.928C56.3939 11.4213 56.8633 13.5547 56.4153 16.328L55.5833 21.384C55.1566 24.1147 54.1433 26.1307 52.5433 27.432C50.9433 28.7333 48.7033 29.384 45.8233 29.384ZM46.3673 24.808C47.5833 24.808 48.5219 24.4987 49.1833 23.88C49.8659 23.2613 50.3139 22.3013 50.5273 21L51.2313 16.552C51.4659 15.1013 51.2953 14.024 50.7193 13.32C50.1646 12.616 49.2153 12.2533 47.8713 12.232C46.6766 12.232 45.7379 12.5413 45.0553 13.16C44.3939 13.7787 43.9566 14.7387 43.7433 16.04L43.0393 20.488C42.8046 21.9387 42.9646 23.016 43.5193 23.72C44.0739 24.424 45.0233 24.7867 46.3673 24.808ZM61.6238 29C61.3464 29 61.1971 28.8507 61.1758 28.552L59.0318 8.488C58.9891 8.18933 59.1171 8.04 59.4158 8.04H63.6398C63.9171 8.04 64.0664 8.18933 64.0878 8.488L64.7917 17.672C64.8558 18.696 64.8878 19.72 64.8878 20.744C64.9091 21.7467 64.9091 22.7707 64.8878 23.816H64.9518C65.2718 23.048 65.6024 22.2907 65.9438 21.544C66.2851 20.776 66.6264 20.0187 66.9678 19.272L70.0718 12.84L69.4638 9.032C69.4211 8.73333 69.5598 8.584 69.8798 8.584H74.0718C74.3491 8.584 74.4984 8.73333 74.5198 9.032L75.5758 18.984C75.6611 19.7733 75.7251 20.5733 75.7678 21.384C75.8104 22.1947 75.8424 23.0053 75.8638 23.816H75.9278C76.1411 23.112 76.3758 22.3013 76.6318 21.384C76.8878 20.4453 77.1651 19.5173 77.4638 18.6C77.7624 17.6827 78.0398 16.8827 78.2958 16.2L81.3358 8.488C81.4211 8.18933 81.6131 8.04 81.9118 8.04H86.3918C86.6691 8.04 86.7438 8.18933 86.6158 8.488L78.3598 28.552C78.2104 28.8507 78.0291 29 77.8158 29H72.8878C72.6104 29 72.4611 28.8507 72.4398 28.552L71.7998 23.112C71.7144 22.3227 71.6291 21.544 71.5438 20.776C71.4798 20.008 71.4158 19.2507 71.3518 18.504H71.2878C70.9464 19.272 70.6158 20.04 70.2958 20.808C69.9758 21.576 69.6344 22.344 69.2718 23.112L66.7758 28.552C66.6478 28.8507 66.4664 29 66.2318 29H61.6238ZM86.1268 29C85.8068 29 85.6681 28.8507 85.7108 28.552L88.8788 8.488C88.9214 8.18933 89.0708 8.04 89.3268 8.04H94.6068C94.7988 8.04 94.9268 8.08267 94.9908 8.168C95.0761 8.232 95.1401 8.33867 95.1828 8.488L97.6468 15.592C98.0308 16.744 98.3828 17.8853 98.7028 19.016C99.0228 20.1467 99.3108 21.1707 99.5668 22.088H99.6628C99.7054 21.128 99.7694 20.1787 99.8548 19.24C99.9401 18.28 100.057 17.32 100.207 16.36L101.487 8.488C101.529 8.18933 101.679 8.04 101.935 8.04H106.031C106.351 8.04 106.489 8.18933 106.447 8.488L103.279 28.552C103.236 28.8507 103.076 29 102.799 29H97.4868C97.2521 29 97.0814 28.8507 96.9748 28.552L94.7988 22.216C94.3508 20.936 93.9454 19.6773 93.5828 18.44C93.2201 17.2027 92.9214 16.1147 92.6868 15.176H92.5588C92.4734 16.1573 92.3774 17.1493 92.2708 18.152C92.1641 19.1547 92.0254 20.1573 91.8548 21.16L90.6708 28.552C90.6281 28.8507 90.4788 29 90.2228 29H86.1268ZM115.792 29.384C112.784 29.384 110.597 28.616 109.232 27.08C107.867 25.5227 107.397 23.368 107.824 20.616L108.592 15.688C109.019 12.9573 110.032 10.9413 111.632 9.64C113.232 8.31733 115.451 7.656 118.288 7.656C120.208 7.656 121.819 7.976 123.12 8.616C124.421 9.256 125.349 10.1627 125.904 11.336C126.48 12.5093 126.597 13.8747 126.256 15.432C126.192 15.7307 126.043 15.88 125.808 15.88H121.52C121.221 15.88 121.083 15.7307 121.104 15.432C121.253 14.4293 121.051 13.6507 120.496 13.096C119.963 12.52 119.067 12.232 117.808 12.232C116.613 12.232 115.675 12.552 114.992 13.192C114.331 13.8107 113.893 14.76 113.68 16.04L112.976 20.488C112.741 21.9387 112.901 23.0267 113.456 23.752C114.032 24.456 114.981 24.808 116.304 24.808C117.477 24.808 118.384 24.5413 119.024 24.008C119.664 23.4533 120.037 22.6533 120.144 21.608C120.165 21.3093 120.304 21.16 120.56 21.16H124.848C125.189 21.16 125.339 21.3093 125.296 21.608C125.211 23.2933 124.784 24.712 124.016 25.864C123.248 27.016 122.171 27.8907 120.784 28.488C119.419 29.0853 117.755 29.384 115.792 29.384ZM127.939 29C127.619 29 127.481 28.8507 127.523 28.552L130.691 8.488C130.734 8.18933 130.883 8.04 131.139 8.04H135.395C135.715 8.04 135.854 8.18933 135.811 8.488L134.595 16.2H141.859L143.075 8.488C143.118 8.18933 143.267 8.04 143.523 8.04H147.779C148.099 8.04 148.238 8.18933 148.195 8.488L145.027 28.552C144.985 28.8507 144.825 29 144.547 29H140.323C140.003 29 139.865 28.8507 139.907 28.552L141.123 20.744H133.891L132.643 28.552C132.601 28.8507 132.451 29 132.195 29H127.939ZM146.982 29C146.854 29 146.769 28.9573 146.726 28.872C146.683 28.7867 146.694 28.68 146.758 28.552L156.454 8.488C156.603 8.18933 156.785 8.04 156.998 8.04H162.598C162.854 8.04 163.014 8.18933 163.078 8.488L166.438 28.552C166.502 28.8507 166.374 29 166.054 29H161.35C161.094 29 160.945 28.8507 160.902 28.552L159.59 17.256C159.505 16.4667 159.419 15.6667 159.334 14.856C159.27 14.0453 159.217 13.2453 159.174 12.456H159.078C158.801 13.2667 158.502 14.0773 158.182 14.888C157.862 15.6773 157.531 16.4773 157.19 17.288L152.326 28.552C152.198 28.8507 152.006 29 151.75 29H146.982ZM152.998 25.256L154.47 21.128H160.934L161.158 25.256H152.998ZM170.759 29C170.439 29 170.3 28.8507 170.343 28.552L172.871 12.584H167.815C167.665 12.584 167.548 12.552 167.463 12.488C167.399 12.4027 167.377 12.2853 167.399 12.136L167.975 8.488C168.017 8.18933 168.177 8.04 168.455 8.04H183.815C183.964 8.04 184.081 8.08267 184.167 8.168C184.252 8.232 184.273 8.33867 184.231 8.488L183.655 12.136C183.612 12.4347 183.452 12.584 183.175 12.584H178.055L175.463 28.552C175.42 28.8507 175.271 29 175.015 29H170.759Z" fill="black"/>
<path d="M14.3333 8H2.66667C1.7462 8 1 8.74619 1 9.66667V28C1 28.9205 1.7462 29.6667 2.66667 29.6667H14.3333C15.2538 29.6667 16 28.9205 16 28V9.66667C16 8.74619 15.2538 8 14.3333 8Z" fill="#FFC100" stroke="black" stroke-linecap="round" stroke-linejoin="round"/>
<path d="M5 18C5.5303 20.1421 7.6515 21.4512 9.56057 20.8562C10.7272 20.3801 11.6818 19.3091 12 18" fill="#FFC100"/>
<path d="M5 18C5.5303 20.1421 7.6515 21.4512 9.56057 20.8562C10.7272 20.3801 11.6818 19.3091 12 18" stroke="black" stroke-linecap="round" stroke-linejoin="round"/>
<path d="M6.11372 15.5303C5.96728 15.5303 5.84857 15.4116 5.84857 15.2651C5.84857 15.1187 5.96728 15 6.11372 15" fill="#FFC100"/>
<path d="M6.11372 15.5303C5.96728 15.5303 5.84857 15.4116 5.84857 15.2651C5.84857 15.1187 5.96728 15 6.11372 15" stroke="black" stroke-linecap="round" stroke-linejoin="round"/>
<path d="M6.11371 15.5303C6.26015 15.5303 6.37886 15.4116 6.37886 15.2651C6.37886 15.1187 6.26015 15 6.11371 15" fill="#FFC100"/>
<path d="M6.11371 15.5303C6.26015 15.5303 6.37886 15.4116 6.37886 15.2651C6.37886 15.1187 6.26015 15 6.11371 15" stroke="black" stroke-linecap="round" stroke-linejoin="round"/>
<path d="M10.8864 15.5303C10.7399 15.5303 10.6212 15.4116 10.6212 15.2651C10.6212 15.1187 10.7399 15 10.8864 15" fill="#FFC100"/>
<path d="M10.8864 15.5303C10.7399 15.5303 10.6212 15.4116 10.6212 15.2651C10.6212 15.1187 10.7399 15 10.8864 15" stroke="black" stroke-linecap="round" stroke-linejoin="round"/>
<path d="M10.8864 15.5303C11.0328 15.5303 11.1515 15.4116 11.1515 15.2651C11.1515 15.1187 11.0328 15 10.8864 15" fill="#FFC100"/>
<path d="M10.8864 15.5303C11.0328 15.5303 11.1515 15.4116 11.1515 15.2651C11.1515 15.1187 11.0328 15 10.8864 15" stroke="black" stroke-linecap="round" stroke-linejoin="round"/>
</svg>
