<svg width="280" height="280" viewBox="0 0 280 280" fill="none" xmlns="http://www.w3.org/2000/svg">
<path d="M185.124 44.1076C185.124 44.1076 151.514 86.6805 97.7377 61.2856C43.9616 35.8907 -9.8139 104.606 36.4926 146.432C82.7992 188.258 37.4848 211.241 68.9446 236.874C104.701 266.008 135.83 206.93 164.211 220.374C226.851 250.046 273.257 238.299 262.801 203.942C244.446 143.633 220.975 139.71 238.901 108.34C256.826 76.9702 217.264 11.746 185.124 44.1076Z" fill="#DEE9FF"/>
<path d="M181.728 121.939C181.728 121.939 215.934 119.717 218.599 85.9555C215.49 83.7343 211.047 70.4073 218.599 69.0746C226.151 67.7419 231.482 69.0746 231.482 69.0746C231.482 69.0746 245.253 79.7361 227.928 87.7324C227.484 92.1749 227.04 131.712 191.501 149.037C155.962 166.362 181.728 121.939 181.728 121.939Z" fill="#699CFF"/>
<path d="M238.214 47.3906L224.5 44.8917C223.74 44.7531 223.011 45.2574 222.872 46.0181L217.931 73.136C217.792 73.8967 218.296 74.6257 219.057 74.7643L232.771 77.2632C233.531 77.4018 234.26 76.8975 234.399 76.1369L239.34 49.0189C239.479 48.2582 238.975 47.5292 238.214 47.3906Z" fill="#0E84E5"/>
<path d="M198.929 146.443C198.929 165.261 190.595 182.142 177.41 193.603C166.06 203.454 151.532 208.868 136.504 208.849C114.31 208.849 94.835 197.281 83.7646 179.831C77.7923 170.39 74.4626 159.519 74.1227 148.353C73.7829 137.186 76.4454 126.133 81.8326 116.346C87.2198 106.559 95.1343 98.3973 104.751 92.7111C114.367 87.0249 125.333 84.0231 136.504 84.0187C165.451 84.0187 189.813 103.725 196.85 130.468C198.24 135.679 198.939 141.05 198.929 146.443Z" fill="#A2BDFF"/>
<path d="M177.41 193.603C166.06 203.453 151.532 208.868 136.504 208.849C114.31 208.849 94.835 197.281 83.7646 179.831C93.5023 171.853 98.993 172.705 102.654 174.074C106.652 175.585 108.873 182.355 120.423 175.691C131.973 169.028 141.302 185.02 145.744 187.686C163.514 186.406 172.772 190.191 177.41 193.603Z" fill="#0E84E5"/>
<path d="M196.85 130.468C170.462 136.723 172.328 121.708 169.733 112.61C167.068 103.281 165.291 106.39 148.854 119.274C132.417 132.157 130.64 111.277 130.339 107.724C130.019 104.17 129.308 102.838 120.867 103.885C112.427 104.933 110.206 98.3946 103.098 102.837C100.148 104.685 96.1323 103.85 92.4539 102.233C98.2358 96.4464 105.103 91.8587 112.663 88.733C120.222 85.6074 128.324 84.0054 136.504 84.0189C165.451 84.0186 189.813 103.725 196.85 130.468Z" fill="#0E84E5"/>
<path d="M83.4985 79.3276C83.2128 80.2925 83.2196 81.3203 83.5181 82.2813C83.8166 83.2423 84.3933 84.0931 85.1753 84.7263C85.9574 85.3595 86.9096 85.7466 87.9116 85.8386C88.9136 85.9307 89.9204 85.7235 90.8047 85.2433C91.689 84.7631 92.411 84.0315 92.8795 83.141C93.348 82.2505 93.5419 81.241 93.4367 80.2403C93.3315 79.2396 92.932 78.2925 92.2885 77.5189C91.6451 76.7453 90.7867 76.1798 89.8219 75.894C88.5281 75.511 87.1351 75.6576 85.9492 76.3015C84.7634 76.9454 83.8819 78.0339 83.4985 79.3276Z" fill="#699CFF"/>
<path d="M80.8863 66.9784C79.0717 67.9573 77.4693 69.2866 76.172 70.8892C74.8747 72.4918 73.9083 74.3359 73.3287 76.3147C73.2161 76.6901 73.1786 77.084 73.2186 77.4739C73.2585 77.8638 73.375 78.242 73.5614 78.5868C73.7479 78.9316 74.0005 79.2361 74.3049 79.483C74.6093 79.73 74.9594 79.9143 75.3353 80.0256C75.7111 80.1369 76.1052 80.1729 76.4949 80.1316C76.8847 80.0902 77.2624 79.9723 77.6065 79.7846C77.9506 79.597 78.2543 79.3432 78.5001 79.0379C78.7459 78.7326 78.929 78.3818 79.0389 78.0056C79.4018 76.7792 80.0028 75.6364 80.8075 74.6424C81.6122 73.6484 82.6049 72.8226 83.7288 72.2123C84.8526 71.6019 86.0858 71.219 87.3577 71.0853C88.6296 70.9516 89.9154 71.0698 91.1416 71.4332C91.517 71.5458 91.911 71.5832 92.3009 71.5433C92.6908 71.5034 93.069 71.3868 93.4137 71.2004C93.7585 71.014 94.0631 70.7614 94.31 70.457C94.5569 70.1526 94.7413 69.8024 94.8526 69.4266C94.9639 69.0508 94.9999 68.6567 94.9585 68.2669C94.9171 67.8772 94.7992 67.4994 94.6116 67.1553C94.4239 66.8113 94.1701 66.5076 93.8648 66.2618C93.5596 66.016 93.2087 65.8329 92.8325 65.723C90.8572 65.1316 88.7842 64.9381 86.7336 65.1536C84.683 65.3691 82.6955 65.9893 80.8863 66.9784Z" fill="#699CFF"/>
<path d="M76.2068 58.3613C73.2582 59.9521 70.6545 62.1119 68.5463 64.7158C66.4381 67.3197 64.8674 70.3159 63.925 73.531C63.7008 74.2882 63.7865 75.1035 64.1634 75.7975C64.5402 76.4915 65.1773 77.0074 65.9346 77.2316C66.6918 77.4559 67.5071 77.3701 68.2011 76.9932C68.8951 76.6164 69.4109 75.9793 69.6352 75.222C70.3638 72.7609 71.57 70.4674 73.1851 68.4724C74.8001 66.4775 76.7923 64.8202 79.0479 63.5953C81.3035 62.3704 83.7783 61.6018 86.331 61.3334C88.8836 61.065 91.4642 61.3021 93.9252 62.0311C94.3006 62.1438 94.6945 62.1812 95.0844 62.1413C95.4743 62.1013 95.8525 61.9848 96.1973 61.7984C96.5421 61.612 96.8467 61.3593 97.0936 61.0549C97.3405 60.7505 97.5249 60.4004 97.6361 60.0246C97.7474 59.6487 97.7834 59.2547 97.7421 58.8649C97.7007 58.4752 97.5828 58.0974 97.3951 57.7533C97.2075 57.4092 96.9537 57.1056 96.6484 56.8598C96.3431 56.614 95.9923 56.4308 95.6161 56.3209C92.4067 55.3605 89.0387 55.0464 85.707 55.3966C82.3754 55.7468 79.1463 56.7545 76.2068 58.3613Z" fill="#699CFF"/>
<path d="M98.4082 46.8977C93.9597 45.58 89.2953 45.1515 84.6813 45.6367C80.0672 46.1218 75.5939 47.5111 71.5168 49.7252C67.4398 51.9393 63.8388 54.9348 60.9195 58.5408C58.0002 62.1467 55.8198 66.2923 54.5029 70.741C54.3903 71.1164 54.3528 71.5104 54.3928 71.9003C54.4327 72.2902 54.5492 72.6684 54.7356 73.0131C54.9221 73.3579 55.1747 73.6625 55.4791 73.9094C55.7835 74.1563 56.1336 74.3407 56.5095 74.452C56.8853 74.5632 57.2794 74.5993 57.6691 74.5579C58.0589 74.5165 58.4366 74.3986 58.7807 74.211C59.1248 74.0233 59.4285 73.7695 59.6743 73.4642C59.9201 73.1589 60.1032 72.8081 60.2131 72.4319C61.3079 68.7333 63.1206 65.2865 65.5476 62.2885C67.9747 59.2905 70.9685 56.8 74.3582 54.9592C77.7479 53.1184 81.467 51.9634 85.3032 51.5601C89.1393 51.1569 93.0173 51.5132 96.7157 52.6089C97.4718 52.8292 98.2844 52.7411 98.9757 52.3638C99.667 51.9865 100.181 51.3508 100.404 50.5957C100.628 49.8406 100.544 49.0276 100.17 48.3346C99.7956 47.6416 99.1622 47.125 98.4082 46.8977Z" fill="#699CFF"/>
</svg>
