<svg width="21" height="30" viewBox="0 0 21 30" fill="none" xmlns="http://www.w3.org/2000/svg">
<path d="M18.2308 1H3.15385C1.96432 1 1 1.96431 1 3.15385V26.8462C1 28.0357 1.96432 29 3.15385 29H18.2308C19.4203 29 20.3846 28.0357 20.3846 26.8462V3.15385C20.3846 1.96431 19.4203 1 18.2308 1Z" fill="#FFC100" stroke="black" stroke-linecap="round" stroke-linejoin="round"/>
<path d="M6.16922 13.9231C6.85453 16.6914 9.59577 18.3831 12.0629 17.6141C13.5706 16.9989 14.8041 15.6148 15.2154 13.9231" fill="#FFC100"/>
<path d="M6.16922 13.9231C6.85453 16.6914 9.59577 18.3831 12.0629 17.6141C13.5706 16.9989 14.8041 15.6148 15.2154 13.9231" stroke="black" stroke-linecap="round" stroke-linejoin="round"/>
<path d="M7.60849 10.7315C7.41925 10.7315 7.26584 10.5781 7.26584 10.3888C7.26584 10.1996 7.41925 10.0462 7.60849 10.0462" fill="#FFC100"/>
<path d="M7.60849 10.7315C7.41925 10.7315 7.26584 10.5781 7.26584 10.3888C7.26584 10.1996 7.41925 10.0462 7.60849 10.0462" stroke="black" stroke-linecap="round" stroke-linejoin="round"/>
<path d="M7.60852 10.7315C7.79776 10.7315 7.95118 10.5781 7.95118 10.3888C7.95118 10.1996 7.79776 10.0462 7.60852 10.0462" fill="#FFC100"/>
<path d="M7.60852 10.7315C7.79776 10.7315 7.95118 10.5781 7.95118 10.3888C7.95118 10.1996 7.79776 10.0462 7.60852 10.0462" stroke="black" stroke-linecap="round" stroke-linejoin="round"/>
<path d="M13.7763 10.7315C13.587 10.7315 13.4336 10.5781 13.4336 10.3888C13.4336 10.1996 13.587 10.0462 13.7763 10.0462" fill="#FFC100"/>
<path d="M13.7763 10.7315C13.587 10.7315 13.4336 10.5781 13.4336 10.3888C13.4336 10.1996 13.587 10.0462 13.7763 10.0462" stroke="black" stroke-linecap="round" stroke-linejoin="round"/>
<path d="M13.7763 10.7315C13.9655 10.7315 14.1189 10.5781 14.1189 10.3888C14.1189 10.1996 13.9655 10.0462 13.7763 10.0462" fill="#FFC100"/>
<path d="M13.7763 10.7315C13.9655 10.7315 14.1189 10.5781 14.1189 10.3888C14.1189 10.1996 13.9655 10.0462 13.7763 10.0462" stroke="black" stroke-linecap="round" stroke-linejoin="round"/>
</svg>
